<svg width="456" height="456" viewBox="0 0 456 456" fill="none" xmlns="http://www.w3.org/2000/svg">
<path fill-rule="evenodd" clip-rule="evenodd" d="M1.39207 0.612921C-0.513927 1.38192 -0.437938 357.951 1.46806 357.951C2.19706 357.951 3.88406 356.767 5.21806 355.32C8.32106 351.953 37.4881 326.792 55.6421 311.823C113.05 264.486 188.461 213.947 255.49 177.89C262.007 174.385 266.897 171.369 266.359 171.19C264.802 170.671 227.055 185.875 208.142 194.638C203.467 196.804 197.167 199.673 194.142 201.014C177.701 208.299 139.882 228.232 120.998 239.564C115.144 243.077 109.856 245.951 109.248 245.951C108.45 245.951 108.142 225.612 108.142 172.951V99.9509H190.31C274.803 99.9509 279.913 100.158 291.209 104.039C294.27 105.09 297.554 105.951 298.506 105.951C300.149 105.951 318.355 99.5469 351.642 87.2609C400.938 69.0669 409.585 65.841 409.892 65.535C410.604 64.822 398.167 50.1739 391.75 44.1689C375.788 29.2319 353.965 16.1429 334.142 9.61793C322.676 5.84293 304.849 2.13594 292.642 0.986944C281.542 -0.057056 3.93607 -0.413079 1.39207 0.612921ZM442.642 67.4279C437.692 69.2869 423.067 74.7159 410.142 79.4909C397.217 84.2669 380.117 90.6419 372.142 93.6579C364.167 96.6729 354.042 100.39 349.642 101.917C334.367 107.219 324.963 111.171 325.8 111.939C326.263 112.363 332.942 114.784 340.642 117.318C348.342 119.853 360.267 123.891 367.142 126.292L379.642 130.658L383.719 141.054C385.961 146.773 388.355 152.801 389.038 154.451C389.722 156.101 392.107 162.176 394.34 167.951C396.572 173.726 398.777 178.864 399.239 179.369C399.714 179.889 402.528 175.116 405.724 168.369C415.963 146.756 421.495 135.193 440.129 96.4509C453.321 69.0249 455.142 65.1559 455.142 64.5509C455.142 63.2889 451.323 64.1679 442.642 67.4279ZM435.144 137.451C432.258 143.501 427.983 152.501 425.644 157.451C402.589 206.244 400.152 211.121 399.014 210.742C398.403 210.538 395.911 205.664 393.476 199.911C391.04 194.158 388.43 188.101 387.676 186.451C386.921 184.801 383.995 177.827 381.174 170.953C378.354 164.079 375.589 158.004 375.03 157.453C374.348 156.78 371.901 158.748 367.573 163.451C353.525 178.716 341.14 192.84 335.045 200.549C331.523 205.002 327.292 210.358 325.642 212.45C323.992 214.542 318.749 221.803 313.991 228.584C292.153 259.707 275.717 292.383 267.029 321.951C262.839 336.21 262.309 338.302 260.695 346.951L259.295 354.451L262.61 360.451C269.364 372.677 273.961 380.788 281.596 393.951C285.903 401.376 290.555 409.476 291.935 411.951C293.314 414.426 297.218 421.176 300.61 426.951C304.001 432.726 308.947 441.276 311.601 445.951C314.254 450.626 316.924 454.779 317.534 455.179C319.101 456.209 440.351 456.088 441.995 455.055C443.094 454.365 443.115 453.758 442.109 451.828C439.835 447.464 424.152 420.934 391.641 366.451C358.252 310.499 356.76 307.939 357.311 307.54C357.493 307.408 361.692 304.899 366.642 301.964C377.15 295.735 380.342 293.475 389.142 286.041C417.28 262.269 435.767 229.619 441.628 193.343C444.71 174.267 444.499 140.831 441.225 129.365C440.436 126.605 440.114 127.033 435.144 137.451ZM338.069 153.295C283.204 180.975 231.442 214.248 181.642 253.846C172.925 260.777 141.526 287.604 134.178 294.398C117.36 309.949 85.4991 341.496 78.4751 349.553C77.4671 350.709 73.2201 355.434 69.0371 360.053C49.5911 381.526 32.6971 402.638 11.9351 431.407C2.31107 444.743 1.14207 446.817 1.14207 450.55C1.14207 453.446 1.63007 454.924 2.72407 455.344C5.00307 456.219 147.419 456.064 148.78 455.186C149.406 454.782 151.151 448.151 152.658 440.451C161.897 393.25 181.038 348.472 211.689 302.359C221.391 287.763 239.327 263.648 247.51 254.198C281.977 214.395 311.38 185.853 358.669 146.29C361.404 144.002 363.384 141.869 363.069 141.551C362.754 141.232 351.504 146.517 338.069 153.295Z" fill="#eb5e28"/>
</svg>
